<?xml version="1.0" standalone="no"?>
<!DOCTYPE svg PUBLIC "-//W3C//DTD SVG 20010904//EN"
 "http://www.w3.org/TR/2001/REC-SVG-20010904/DTD/svg10.dtd">
<svg version="1.0" xmlns="http://www.w3.org/2000/svg"
 width="1024.000000pt" height="534.000000pt" viewBox="0 0 1024.000000 534.000000"
 preserveAspectRatio="xMidYMid meet">

<g transform="translate(0.000000,534.000000) scale(0.100000,-0.100000)"
fill="#000000" stroke="none">
<path d="M2425 5313 c-10 -26 -972 -2583 -1006 -2676 l-29 -77 328 2 327 3
227 605 c137 365 227 593 228 574 0 -17 -16 -268 -35 -558 -19 -290 -35 -550
-35 -577 l0 -49 349 0 c323 0 349 1 356 18 3 9 226 602 495 1317 269 715 500
1330 514 1368 l26 67 -328 0 -327 0 -230 -612 c-126 -337 -231 -605 -233 -596
-3 17 64 1088 73 1166 l5 42 -349 0 c-323 0 -349 -1 -356 -17z"/>
<path d="M4256 5322 c-6 -10 -42 -107 -605 -1604 -237 -631 -431 -1150 -431
-1153 0 -3 147 -4 326 -3 l325 3 509 1354 c280 745 514 1367 519 1383 l10 28
-324 0 c-178 0 -326 -4 -329 -8z"/>
<path d="M5015 5313 c-3 -10 -233 -625 -510 -1368 -277 -742 -507 -1358 -510
-1368 -7 -16 11 -17 321 -15 l328 3 216 567 c119 312 219 570 223 574 4 4 7
-58 8 -137 0 -79 6 -337 12 -574 l12 -430 461 -5 462 -5 -1787 -483 c-1069
-288 -1826 -488 -1886 -497 -117 -17 -331 -20 -440 -4 -414 57 -721 292 -835
639 -101 309 -42 734 165 1187 53 115 58 120 -134 -117 -528 -651 -903 -1292
-1045 -1786 -81 -282 -94 -516 -40 -729 23 -90 98 -235 162 -311 125 -149 361
-302 576 -372 172 -57 288 -75 486 -75 400 -1 748 96 1545 428 1039 434 7391
3179 7420 3206 17 17 18 21 5 29 -8 6 -28 7 -45 4 -28 -6 -2887 -777 -2928
-790 -15 -5 -12 9 18 93 19 54 35 104 35 111 0 9 -82 12 -375 12 -206 0 -375
3 -375 8 0 4 55 154 122 335 l123 327 315 0 315 0 96 255 97 255 -315 0 c-248
0 -314 3 -311 13 3 6 52 139 109 294 l103 283 334 2 333 3 85 220 c46 121 84
223 84 228 0 4 -449 7 -997 7 l-998 0 -335 -406 c-184 -223 -338 -408 -342
-410 -8 -5 -9 -8 171 464 72 189 131 345 131 348 0 2 -148 4 -329 4 -304 0
-329 -1 -336 -17z m1229 -1298 c-256 -682 -469 -1244 -473 -1248 -5 -4 -11
110 -15 255 -9 375 -25 892 -31 1039 l-5 125 491 538 c270 296 492 536 494
534 2 -2 -205 -562 -461 -1243z"/>
</g>
</svg>
